<?xml version="1.0" standalone="no"?>
<!DOCTYPE svg PUBLIC "-//W3C//DTD SVG 20010904//EN"
 "http://www.w3.org/TR/2001/REC-SVG-20010904/DTD/svg10.dtd">
<svg version="1.0" xmlns="http://www.w3.org/2000/svg"
 width="1280.000000pt" height="1082.000000pt" viewBox="0 0 1280.000000 1082.000000"
 preserveAspectRatio="xMidYMid meet">
<metadata>
Created by potrace 1.15, written by Peter Selinger 2001-2017
</metadata>
<g transform="translate(0.000000,1082.000000) scale(0.100000,-0.100000)"
fill="#000000" stroke="none">
<path d="M7915 10807 c-87 -22 -138 -54 -330 -201 -278 -214 -411 -286 -866
-470 -421 -170 -522 -216 -557 -249 -50 -47 -72 -97 -72 -160 0 -71 19 -94 86
-106 56 -11 105 -2 229 42 156 55 611 145 631 124 3 -3 -4 -36 -16 -74 -12
-37 -28 -103 -35 -147 -8 -43 -20 -85 -27 -93 -7 -9 -72 -266 -146 -571 -73
-306 -139 -563 -146 -572 -8 -8 -17 -34 -21 -57 -4 -25 -12 -43 -20 -43 -27 0
-379 -41 -560 -65 l-190 -25 -23 30 c-18 23 -32 30 -57 30 -18 0 -381 -41
-807 -90 -425 -50 -852 -99 -948 -110 -221 -26 -217 -25 -235 -60 -8 -16 -25
-32 -38 -35 -47 -11 -640 -73 -652 -69 -15 6 -12 115 6 202 9 45 16 57 42 70
37 20 82 61 89 82 4 13 8 13 31 1 35 -19 135 -108 148 -133 18 -34 -13 -63
-143 -129 -68 -35 -116 -65 -107 -66 31 -7 388 46 418 62 35 18 46 47 45 120
0 100 -70 185 -298 363 -131 102 -183 130 -319 173 -193 59 -257 83 -257 95 0
34 -98 88 -149 81 -25 -3 -51 3 -84 20 -61 31 -104 24 -120 -17 -13 -33 -27
-37 -167 -45 -213 -13 -330 -35 -415 -77 -22 -11 -123 -73 -225 -138 -231
-146 -282 -174 -555 -300 -363 -169 -391 -176 -563 -141 -57 12 -114 19 -125
15 -60 -18 -95 -90 -76 -157 12 -44 36 -58 134 -80 202 -45 306 -29 608 98
299 124 438 198 727 386 95 62 194 120 219 129 29 11 84 19 146 21 98 4 100 4
103 -19 3 -17 -11 -38 -47 -77 -33 -35 -51 -62 -51 -79 0 -17 -11 -33 -32 -49
-58 -43 -94 -56 -185 -67 -146 -16 -252 -82 -269 -167 -7 -36 10 -73 33 -73 9
0 35 19 58 43 51 53 177 107 309 132 50 9 106 23 125 32 20 9 54 19 76 22 34
5 44 13 72 56 79 125 85 130 131 127 24 -2 55 3 73 12 57 29 96 21 192 -38 49
-30 102 -60 118 -66 16 -7 29 -20 29 -29 0 -9 7 -27 16 -39 14 -20 14 -32 4
-90 -6 -37 -20 -76 -30 -87 -11 -12 -26 -57 -36 -108 l-17 -89 -51 2 c-28 2
-61 2 -74 1 -50 -2 -82 -118 -47 -168 13 -19 91 -51 100 -41 2 2 10 21 19 42
9 22 18 37 20 35 3 -2 -30 -140 -73 -305 -60 -230 -84 -307 -101 -324 -21 -21
-22 -30 -9 -80 4 -17 -24 -18 -142 -5 -59 7 -73 5 -123 -18 -37 -17 -59 -34
-65 -50 -6 -14 -14 -28 -19 -31 -5 -3 -56 1 -113 10 -124 19 -396 14 -499 -10
-178 -40 -362 -117 -520 -216 -404 -253 -721 -685 -909 -1237 -65 -193 -128
-470 -167 -738 -22 -146 -25 -589 -6 -760 73 -649 224 -1099 526 -1565 297
-460 751 -800 1183 -887 124 -25 433 -25 557 0 332 67 598 217 862 488 166
171 312 376 417 585 170 340 298 836 333 1296 l6 86 -28 4 c-15 2 -29 8 -31
14 -2 7 36 13 114 17 65 4 155 12 200 18 l82 11 33 -38 c86 -99 342 -375 394
-425 33 -31 113 -98 179 -149 174 -136 232 -189 266 -243 16 -26 36 -50 44
-53 8 -4 15 -13 15 -21 0 -8 9 -26 20 -40 11 -14 20 -40 20 -57 0 -17 9 -42
20 -56 11 -14 20 -37 20 -51 0 -14 11 -36 24 -49 14 -12 28 -35 31 -51 4 -15
22 -39 41 -54 19 -14 34 -34 34 -45 0 -11 11 -22 29 -28 17 -6 37 -24 46 -41
11 -22 23 -31 40 -31 15 0 31 -11 45 -30 15 -21 30 -30 50 -30 18 0 34 -8 43
-20 10 -15 24 -20 48 -19 19 2 46 -5 61 -15 19 -12 32 -15 44 -8 11 6 29 6 50
-1 24 -7 41 -7 59 1 15 7 43 9 64 6 24 -4 41 -2 45 5 4 6 24 11 45 11 23 0 44
6 51 15 9 11 22 14 40 10 14 -3 43 1 63 10 36 15 37 17 31 55 -8 51 8 52 25 3
221 -640 491 -1093 912 -1528 299 -308 567 -510 896 -674 402 -201 760 -310
1123 -342 166 -15 525 -7 700 16 562 72 1129 318 1600 694 352 281 744 794
960 1254 231 496 364 1165 347 1747 -14 471 -114 926 -307 1393 -235 570 -656
1133 -1137 1520 -395 318 -1011 584 -1528 661 -442 66 -976 28 -1365 -98 -258
-83 -566 -228 -795 -375 l-140 -90 -192 387 c-106 213 -193 391 -193 397 0 20
34 -30 235 -345 114 -179 209 -327 211 -329 5 -5 117 62 118 71 1 4 -123 186
-275 405 -438 631 -542 787 -528 792 7 2 24 15 37 28 27 27 24 67 -7 94 -14
11 -18 26 -15 56 3 41 61 285 185 788 39 154 72 309 74 344 8 114 28 136 150
161 81 17 120 38 197 108 82 74 119 89 403 159 291 71 362 95 475 156 215 117
287 249 226 412 -37 96 -77 154 -156 228 -73 67 -152 115 -247 148 -73 26
-236 34 -308 16z m-1358 -2835 c9 -5 -6 -83 -57 -297 -76 -323 -283 -1194
-540 -2280 -94 -396 -203 -855 -241 -1020 -39 -165 -78 -308 -87 -317 -8 -10
-29 -18 -47 -18 -24 0 -37 -7 -49 -24 -10 -16 -27 -26 -48 -28 -25 -2 -34 -9
-38 -27 -4 -17 -15 -27 -36 -33 -21 -5 -35 -18 -45 -40 -8 -18 -21 -34 -29
-36 -10 -1 -276 377 -780 1110 -421 612 -953 1386 -1183 1720 l-418 607 36
151 c34 137 40 152 62 161 51 19 114 28 425 60 l316 33 37 -33 c30 -26 42 -31
68 -26 18 3 399 43 847 90 1146 120 1114 116 1126 126 7 5 14 22 17 37 l6 28
298 31 c343 35 344 35 360 25z m410 -399 c75 -153 205 -424 290 -603 l154
-325 -43 -35 c-406 -335 -741 -803 -988 -1381 -98 -228 -175 -475 -225 -724
-22 -106 -65 -410 -65 -457 0 -21 -4 -38 -9 -38 -6 0 -11 17 -13 38 -2 27 -7
36 -18 33 -8 -1 -24 -3 -35 -2 -71 4 -85 7 -85 18 0 6 25 114 55 240 30 125
223 939 430 1808 419 1761 406 1705 412 1705 2 0 65 -125 140 -277z m-3917
-866 c0 -19 7 -31 25 -39 16 -7 229 -313 637 -917 558 -826 1391 -2051 1459
-2144 15 -21 25 -45 22 -53 -3 -8 -7 -14 -9 -14 -2 0 -61 44 -131 98 -167 128
-298 248 -586 541 -137 139 -248 243 -262 247 -39 10 -90 -4 -115 -31 -22 -23
-24 -24 -59 -8 -20 8 -72 30 -116 49 -86 36 -105 54 -55 54 l31 0 -6 48 c-41
289 -140 682 -232 922 -133 348 -419 758 -722 1038 -96 89 -123 123 -83 107
40 -17 50 -16 56 2 10 31 -12 173 -34 218 -24 49 -26 83 -5 91 8 3 17 15 21
26 5 16 21 -2 85 -94 50 -73 78 -123 79 -141z m6515 83 c392 -35 758 -159
1130 -383 407 -246 762 -610 1030 -1058 237 -396 405 -901 460 -1379 18 -158
20 -486 4 -646 -52 -526 -220 -1032 -489 -1471 l-81 -133 -74 50 c-123 83
-177 112 -188 101 -13 -13 20 -59 116 -158 l79 -81 -37 -49 c-312 -409 -841
-774 -1345 -926 -312 -95 -712 -138 -995 -108 -469 50 -974 249 -1350 531
-334 251 -669 629 -816 921 -39 78 -37 111 2 44 23 -39 47 -44 102 -22 25 10
55 11 134 3 128 -12 178 -2 310 63 175 85 282 151 297 180 17 32 8 89 -23 149
-27 52 -53 73 -113 89 -64 18 -423 33 -488 21 -25 -4 -86 -28 -136 -52 l-91
-44 -87 87 c-47 47 -86 89 -86 92 0 15 102 45 435 129 1039 263 1448 369 1628
426 60 19 116 34 125 34 8 0 26 10 39 22 16 15 34 21 55 20 17 -1 41 4 54 13
13 8 41 15 62 15 21 0 47 7 58 15 10 8 36 15 56 15 24 0 47 9 67 26 21 17 37
23 51 19 33 -10 59 4 78 43 9 19 31 43 47 52 24 13 31 24 33 55 2 26 12 47 29
63 21 19 24 28 18 55 -11 45 -10 67 5 103 12 28 11 34 -11 65 -13 18 -26 54
-29 78 -4 36 -10 47 -34 61 -17 9 -34 30 -41 49 -12 38 -42 63 -64 56 -21 -6
-34 4 -49 39 -10 21 -18 27 -33 23 -13 -4 -27 2 -37 14 -9 11 -134 223 -277
472 -143 248 -437 742 -652 1097 -398 656 -448 744 -438 760 18 30 331 177
510 240 303 107 696 151 1050 120z m-7579 -301 c52 -5 127 -19 167 -30 40 -11
81 -23 92 -25 15 -4 25 3 40 28 38 64 27 -2 -40 -237 -81 -283 -193 -622 -270
-815 -104 -263 -457 -1023 -528 -1137 -33 -53 -68 -71 -88 -47 -17 20 14 114
77 232 60 111 67 154 28 160 -58 8 -165 -244 -163 -385 1 -39 -2 -76 -5 -82
-8 -12 10 -52 28 -63 6 -4 31 -8 55 -8 40 0 47 -5 94 -55 64 -70 104 -83 164
-54 39 19 63 52 86 122 5 13 18 17 56 17 47 0 50 -2 60 -33 17 -51 62 -88 114
-94 61 -7 102 16 129 72 14 28 29 45 40 45 9 0 23 10 29 23 7 12 20 28 31 35
23 16 23 55 1 77 -20 21 -19 24 84 258 256 585 457 1150 512 1439 17 95 17 97
-2 127 -32 52 -4 35 69 -41 231 -242 427 -594 543 -976 33 -111 54 -204 107
-490 5 -23 8 -26 57 -36 49 -11 18 -26 -56 -27 -112 0 -150 -10 -164 -41 -7
-14 -16 -66 -19 -115 -5 -72 -4 -95 10 -121 37 -72 108 -132 156 -132 11 0 40
-10 63 -22 40 -22 41 -23 15 -26 -25 -3 -27 -6 -32 -80 -29 -379 -67 -588
-157 -862 -131 -399 -378 -765 -657 -974 -247 -186 -552 -280 -825 -255 -341
32 -631 184 -903 472 -342 363 -564 851 -654 1432 -88 577 -14 1198 201 1687
22 51 53 114 67 140 l26 47 53 -50 c28 -27 56 -49 62 -49 26 0 19 27 -23 91
-25 38 -46 74 -46 80 0 20 110 178 186 269 150 178 378 354 557 428 181 76
375 103 573 81z m569 -167 l-6 -48 46 -33 c47 -34 53 -57 10 -41 -14 5 -25 7
-25 5 0 -2 -27 -141 -61 -307 -92 -463 -141 -654 -263 -1033 -59 -185 -156
-464 -176 -506 l-12 -27 -37 25 c-29 20 -45 24 -84 20 -59 -5 -93 -34 -111
-97 l-13 -45 -56 -3 c-55 -3 -55 -3 -62 28 -4 17 -21 45 -39 62 l-33 31 60
106 c146 261 361 660 416 769 146 291 283 632 352 872 67 235 79 270 91 270 6
0 7 -18 3 -48z m5534 -295 c220 -357 659 -1076 809 -1324 71 -118 92 -160 92
-188 0 -31 4 -38 28 -47 22 -9 49 -48 130 -189 56 -98 102 -185 102 -192 0 -8
-11 -20 -25 -27 -21 -11 -32 -11 -64 0 -35 11 -43 11 -66 -4 -18 -12 -36 -15
-59 -11 -20 4 -36 2 -40 -4 -10 -16 -41 -14 -56 4 -7 8 -25 15 -39 15 -15 0
-36 7 -47 15 -25 19 -63 19 -85 -1 -10 -9 -24 -14 -32 -11 -24 9 -85 139 -445
947 -192 432 -397 890 -455 1018 l-105 233 32 23 c47 35 110 76 116 76 3 -1
97 -150 209 -333z m-336 -122 c69 -148 176 -378 238 -510 62 -132 219 -481
350 -775 230 -519 237 -535 216 -545 -14 -6 -358 -10 -967 -10 -1069 0 -1040
-2 -1040 66 0 21 11 104 25 186 81 469 238 885 461 1219 99 149 178 247 314
388 96 100 270 260 275 254 1 -2 59 -124 128 -273z m846 -1941 c21 -7 8 -85
-23 -139 -44 -74 -84 -94 -227 -111 -68 -8 -497 -62 -954 -119 -456 -57 -832
-102 -833 -100 -2 2 -13 48 -23 102 -17 81 -19 120 -13 229 l6 132 42 9 c40 9
1996 6 2025 -3z m68 -392 c15 -16 33 -31 39 -33 7 -2 30 -41 53 -86 26 -53 54
-92 77 -110 20 -15 46 -35 57 -44 32 -25 10 -43 -81 -67 -1768 -466 -1913
-502 -2031 -502 -93 0 -101 7 -130 100 -47 156 -61 229 -61 329 0 56 3 101 6
101 4 0 185 31 403 70 383 67 1155 196 1216 202 26 3 30 -1 35 -27 4 -26 10
-30 43 -33 48 -4 67 11 67 53 l0 33 123 20 c160 26 151 26 184 -6z"/>
</g>
</svg>
